<svg xmlns="http://www.w3.org/2000/svg" width="900" height="650" viewBox="0 0 900 650" role="img" aria-labelledby="title desc">
<title id="title">Intersección de dos rectas</title>
<desc id="desc">Dos rectas l1 y l2 que se cruzan en (4,4).</desc>
<rect width="100%" height="100%" fill="white"/>


<defs>
  <marker id="arrow" markerWidth="8" markerHeight="8" refX="4" refY="4" orient="auto-start-reverse">
    <path d="M0,0 L8,4 L0,8 z" fill="#111"/>
  </marker>
</defs>

<g>
<line x1="100.00" y1="70" x2="100.00" y2="580" stroke="#ddd" stroke-width="1"/>
<line x1="191.25" y1="70" x2="191.25" y2="580" stroke="#ddd" stroke-width="1"/>
<line x1="282.50" y1="70" x2="282.50" y2="580" stroke="#ddd" stroke-width="1"/>
<line x1="373.75" y1="70" x2="373.75" y2="580" stroke="#ddd" stroke-width="1"/>
<line x1="465.00" y1="70" x2="465.00" y2="580" stroke="#ddd" stroke-width="1"/>
<line x1="556.25" y1="70" x2="556.25" y2="580" stroke="#ddd" stroke-width="1"/>
<line x1="647.50" y1="70" x2="647.50" y2="580" stroke="#ddd" stroke-width="1"/>
<line x1="738.75" y1="70" x2="738.75" y2="580" stroke="#ddd" stroke-width="1"/>
<line x1="830.00" y1="70" x2="830.00" y2="580" stroke="#ddd" stroke-width="1"/>
<line x1="100" y1="580.00" x2="830" y2="580.00" stroke="#ddd" stroke-width="1"/>
<line x1="100" y1="516.25" x2="830" y2="516.25" stroke="#ddd" stroke-width="1"/>
<line x1="100" y1="452.50" x2="830" y2="452.50" stroke="#ddd" stroke-width="1"/>
<line x1="100" y1="388.75" x2="830" y2="388.75" stroke="#ddd" stroke-width="1"/>
<line x1="100" y1="325.00" x2="830" y2="325.00" stroke="#ddd" stroke-width="1"/>
<line x1="100" y1="261.25" x2="830" y2="261.25" stroke="#ddd" stroke-width="1"/>
<line x1="100" y1="197.50" x2="830" y2="197.50" stroke="#ddd" stroke-width="1"/>
<line x1="100" y1="133.75" x2="830" y2="133.75" stroke="#ddd" stroke-width="1"/>
<line x1="100" y1="70.00" x2="830" y2="70.00" stroke="#ddd" stroke-width="1"/>
<line x1="100.00" y1="70" x2="100.00" y2="580" stroke="#111" stroke-width="2.5" marker-start="url(#arrow)" marker-end="url(#arrow)"/>
<line x1="100" y1="580.00" x2="830" y2="580.00" stroke="#111" stroke-width="2.5" marker-start="url(#arrow)" marker-end="url(#arrow)"/>
<line x1="191.25" y1="575.00" x2="191.25" y2="585.00" stroke="#111" stroke-width="1.5"/>
<text x="191.25" y="603.00" text-anchor="middle" font-family="Arial,Helvetica,sans-serif" font-size="16" fill="#111">1</text>
<line x1="282.50" y1="575.00" x2="282.50" y2="585.00" stroke="#111" stroke-width="1.5"/>
<text x="282.50" y="603.00" text-anchor="middle" font-family="Arial,Helvetica,sans-serif" font-size="16" fill="#111">2</text>
<line x1="373.75" y1="575.00" x2="373.75" y2="585.00" stroke="#111" stroke-width="1.5"/>
<text x="373.75" y="603.00" text-anchor="middle" font-family="Arial,Helvetica,sans-serif" font-size="16" fill="#111">3</text>
<line x1="465.00" y1="575.00" x2="465.00" y2="585.00" stroke="#111" stroke-width="1.5"/>
<text x="465.00" y="603.00" text-anchor="middle" font-family="Arial,Helvetica,sans-serif" font-size="16" fill="#111">4</text>
<line x1="556.25" y1="575.00" x2="556.25" y2="585.00" stroke="#111" stroke-width="1.5"/>
<text x="556.25" y="603.00" text-anchor="middle" font-family="Arial,Helvetica,sans-serif" font-size="16" fill="#111">5</text>
<line x1="647.50" y1="575.00" x2="647.50" y2="585.00" stroke="#111" stroke-width="1.5"/>
<text x="647.50" y="603.00" text-anchor="middle" font-family="Arial,Helvetica,sans-serif" font-size="16" fill="#111">6</text>
<line x1="738.75" y1="575.00" x2="738.75" y2="585.00" stroke="#111" stroke-width="1.5"/>
<text x="738.75" y="603.00" text-anchor="middle" font-family="Arial,Helvetica,sans-serif" font-size="16" fill="#111">7</text>
<line x1="830.00" y1="575.00" x2="830.00" y2="585.00" stroke="#111" stroke-width="1.5"/>
<text x="830.00" y="603.00" text-anchor="middle" font-family="Arial,Helvetica,sans-serif" font-size="16" fill="#111">8</text>
<line x1="95.00" y1="516.25" x2="105.00" y2="516.25" stroke="#111" stroke-width="1.5"/>
<text x="88.00" y="521.25" text-anchor="end" font-family="Arial,Helvetica,sans-serif" font-size="16" fill="#111">1</text>
<line x1="95.00" y1="452.50" x2="105.00" y2="452.50" stroke="#111" stroke-width="1.5"/>
<text x="88.00" y="457.50" text-anchor="end" font-family="Arial,Helvetica,sans-serif" font-size="16" fill="#111">2</text>
<line x1="95.00" y1="388.75" x2="105.00" y2="388.75" stroke="#111" stroke-width="1.5"/>
<text x="88.00" y="393.75" text-anchor="end" font-family="Arial,Helvetica,sans-serif" font-size="16" fill="#111">3</text>
<line x1="95.00" y1="325.00" x2="105.00" y2="325.00" stroke="#111" stroke-width="1.5"/>
<text x="88.00" y="330.00" text-anchor="end" font-family="Arial,Helvetica,sans-serif" font-size="16" fill="#111">4</text>
<line x1="95.00" y1="261.25" x2="105.00" y2="261.25" stroke="#111" stroke-width="1.5"/>
<text x="88.00" y="266.25" text-anchor="end" font-family="Arial,Helvetica,sans-serif" font-size="16" fill="#111">5</text>
<line x1="95.00" y1="197.50" x2="105.00" y2="197.50" stroke="#111" stroke-width="1.5"/>
<text x="88.00" y="202.50" text-anchor="end" font-family="Arial,Helvetica,sans-serif" font-size="16" fill="#111">6</text>
<line x1="95.00" y1="133.75" x2="105.00" y2="133.75" stroke="#111" stroke-width="1.5"/>
<text x="88.00" y="138.75" text-anchor="end" font-family="Arial,Helvetica,sans-serif" font-size="16" fill="#111">7</text>
<line x1="95.00" y1="70.00" x2="105.00" y2="70.00" stroke="#111" stroke-width="1.5"/>
<text x="88.00" y="75.00" text-anchor="end" font-family="Arial,Helvetica,sans-serif" font-size="16" fill="#111">8</text>
<text x="820" y="568.00" text-anchor="end" font-family="Arial,Helvetica,sans-serif" font-size="22" font-weight="700">x</text>
<text x="112.00" y="92" font-family="Arial,Helvetica,sans-serif" font-size="22" font-weight="700">y</text>
</g>
<line x1="100.00" y1="70.00" x2="830.00" y2="580.00" stroke="#111" stroke-width="4"/>
<line x1="100.00" y1="580.00" x2="830.00" y2="70.00" stroke="#111" stroke-width="4"/>
<text x="720.50" y="491.50" font-family="Arial,Helvetica,sans-serif" font-size="22" font-style="italic">l₁</text>
<text x="684.00" y="160.00" font-family="Arial,Helvetica,sans-serif" font-size="22" font-style="italic">l₂</text>
<circle cx="465.00" cy="325.00" r="7" fill="#111"/>
<text x="479.00" y="311.00" font-family="Arial,Helvetica,sans-serif" font-size="19">(4, 4)</text>
</svg>