<svg xmlns="http://www.w3.org/2000/svg" width="1050" height="650" viewBox="0 0 1050 650" role="img" aria-labelledby="title desc">
<title id="title">Pictograma de carros por hora</title>
<desc id="desc">Cada símbolo de automóvil representa 20 carros.</desc>
<rect width="100%" height="100%" fill="white"/>
<rect x="55" y="55" width="940" height="520" fill="none" stroke="#111" stroke-width="3"/>
<text x="140" y="105" font-family="Arial,Helvetica,sans-serif" font-size="27" font-weight="700">Hora</text>
<text x="515" y="105" font-family="Arial,Helvetica,sans-serif" font-size="27" font-weight="700">Cantidad de carros</text>
<text x="90" y="171" font-family="Arial,Helvetica,sans-serif" font-size="25">Primera</text>

<g transform="translate(270,145) scale(0.9)">
  <path d="M4 24 L10 14 L20 10 L35 10 L43 15 L49 24 Z" fill="none" stroke="#111" stroke-width="2.2"/>
  <rect x="7" y="23" width="42" height="9" rx="2" fill="none" stroke="#111" stroke-width="2.2"/>
  <circle cx="16" cy="33" r="5" fill="white" stroke="#111" stroke-width="2.2"/>
  <circle cx="40" cy="33" r="5" fill="white" stroke="#111" stroke-width="2.2"/>
</g>
<g transform="translate(345,145) scale(0.9)">
  <path d="M4 24 L10 14 L20 10 L35 10 L43 15 L49 24 Z" fill="none" stroke="#111" stroke-width="2.2"/>
  <rect x="7" y="23" width="42" height="9" rx="2" fill="none" stroke="#111" stroke-width="2.2"/>
  <circle cx="16" cy="33" r="5" fill="white" stroke="#111" stroke-width="2.2"/>
  <circle cx="40" cy="33" r="5" fill="white" stroke="#111" stroke-width="2.2"/>
</g>
<g transform="translate(420,145) scale(0.9)">
  <path d="M4 24 L10 14 L20 10 L35 10 L43 15 L49 24 Z" fill="none" stroke="#111" stroke-width="2.2"/>
  <rect x="7" y="23" width="42" height="9" rx="2" fill="none" stroke="#111" stroke-width="2.2"/>
  <circle cx="16" cy="33" r="5" fill="white" stroke="#111" stroke-width="2.2"/>
  <circle cx="40" cy="33" r="5" fill="white" stroke="#111" stroke-width="2.2"/>
</g>
<g transform="translate(495,145) scale(0.9)">
  <path d="M4 24 L10 14 L20 10 L35 10 L43 15 L49 24 Z" fill="none" stroke="#111" stroke-width="2.2"/>
  <rect x="7" y="23" width="42" height="9" rx="2" fill="none" stroke="#111" stroke-width="2.2"/>
  <circle cx="16" cy="33" r="5" fill="white" stroke="#111" stroke-width="2.2"/>
  <circle cx="40" cy="33" r="5" fill="white" stroke="#111" stroke-width="2.2"/>
</g>
<g transform="translate(570,145) scale(0.9)">
  <path d="M4 24 L10 14 L20 10 L35 10 L43 15 L49 24 Z" fill="none" stroke="#111" stroke-width="2.2"/>
  <rect x="7" y="23" width="42" height="9" rx="2" fill="none" stroke="#111" stroke-width="2.2"/>
  <circle cx="16" cy="33" r="5" fill="white" stroke="#111" stroke-width="2.2"/>
  <circle cx="40" cy="33" r="5" fill="white" stroke="#111" stroke-width="2.2"/>
</g>
<g transform="translate(645,145) scale(0.9)">
  <path d="M4 24 L10 14 L20 10 L35 10 L43 15 L49 24 Z" fill="none" stroke="#111" stroke-width="2.2"/>
  <rect x="7" y="23" width="42" height="9" rx="2" fill="none" stroke="#111" stroke-width="2.2"/>
  <circle cx="16" cy="33" r="5" fill="white" stroke="#111" stroke-width="2.2"/>
  <circle cx="40" cy="33" r="5" fill="white" stroke="#111" stroke-width="2.2"/>
</g>
<g transform="translate(720,145) scale(0.9)">
  <path d="M4 24 L10 14 L20 10 L35 10 L43 15 L49 24 Z" fill="none" stroke="#111" stroke-width="2.2"/>
  <rect x="7" y="23" width="42" height="9" rx="2" fill="none" stroke="#111" stroke-width="2.2"/>
  <circle cx="16" cy="33" r="5" fill="white" stroke="#111" stroke-width="2.2"/>
  <circle cx="40" cy="33" r="5" fill="white" stroke="#111" stroke-width="2.2"/>
</g><text x="90" y="246" font-family="Arial,Helvetica,sans-serif" font-size="25">Segunda</text>

<g transform="translate(270,220) scale(0.9)">
  <path d="M4 24 L10 14 L20 10 L35 10 L43 15 L49 24 Z" fill="none" stroke="#111" stroke-width="2.2"/>
  <rect x="7" y="23" width="42" height="9" rx="2" fill="none" stroke="#111" stroke-width="2.2"/>
  <circle cx="16" cy="33" r="5" fill="white" stroke="#111" stroke-width="2.2"/>
  <circle cx="40" cy="33" r="5" fill="white" stroke="#111" stroke-width="2.2"/>
</g>
<g transform="translate(345,220) scale(0.9)">
  <path d="M4 24 L10 14 L20 10 L35 10 L43 15 L49 24 Z" fill="none" stroke="#111" stroke-width="2.2"/>
  <rect x="7" y="23" width="42" height="9" rx="2" fill="none" stroke="#111" stroke-width="2.2"/>
  <circle cx="16" cy="33" r="5" fill="white" stroke="#111" stroke-width="2.2"/>
  <circle cx="40" cy="33" r="5" fill="white" stroke="#111" stroke-width="2.2"/>
</g>
<g transform="translate(420,220) scale(0.9)">
  <path d="M4 24 L10 14 L20 10 L35 10 L43 15 L49 24 Z" fill="none" stroke="#111" stroke-width="2.2"/>
  <rect x="7" y="23" width="42" height="9" rx="2" fill="none" stroke="#111" stroke-width="2.2"/>
  <circle cx="16" cy="33" r="5" fill="white" stroke="#111" stroke-width="2.2"/>
  <circle cx="40" cy="33" r="5" fill="white" stroke="#111" stroke-width="2.2"/>
</g>
<g transform="translate(495,220) scale(0.9)">
  <path d="M4 24 L10 14 L20 10 L35 10 L43 15 L49 24 Z" fill="none" stroke="#111" stroke-width="2.2"/>
  <rect x="7" y="23" width="42" height="9" rx="2" fill="none" stroke="#111" stroke-width="2.2"/>
  <circle cx="16" cy="33" r="5" fill="white" stroke="#111" stroke-width="2.2"/>
  <circle cx="40" cy="33" r="5" fill="white" stroke="#111" stroke-width="2.2"/>
</g>
<g transform="translate(570,220) scale(0.9)">
  <path d="M4 24 L10 14 L20 10 L35 10 L43 15 L49 24 Z" fill="none" stroke="#111" stroke-width="2.2"/>
  <rect x="7" y="23" width="42" height="9" rx="2" fill="none" stroke="#111" stroke-width="2.2"/>
  <circle cx="16" cy="33" r="5" fill="white" stroke="#111" stroke-width="2.2"/>
  <circle cx="40" cy="33" r="5" fill="white" stroke="#111" stroke-width="2.2"/>
</g>
<g transform="translate(645,220) scale(0.9)">
  <path d="M4 24 L10 14 L20 10 L35 10 L43 15 L49 24 Z" fill="none" stroke="#111" stroke-width="2.2"/>
  <rect x="7" y="23" width="42" height="9" rx="2" fill="none" stroke="#111" stroke-width="2.2"/>
  <circle cx="16" cy="33" r="5" fill="white" stroke="#111" stroke-width="2.2"/>
  <circle cx="40" cy="33" r="5" fill="white" stroke="#111" stroke-width="2.2"/>
</g>
<g transform="translate(720,220) scale(0.9)">
  <path d="M4 24 L10 14 L20 10 L35 10 L43 15 L49 24 Z" fill="none" stroke="#111" stroke-width="2.2"/>
  <rect x="7" y="23" width="42" height="9" rx="2" fill="none" stroke="#111" stroke-width="2.2"/>
  <circle cx="16" cy="33" r="5" fill="white" stroke="#111" stroke-width="2.2"/>
  <circle cx="40" cy="33" r="5" fill="white" stroke="#111" stroke-width="2.2"/>
</g>
<g transform="translate(795,220) scale(0.9)">
  <path d="M4 24 L10 14 L20 10 L35 10 L43 15 L49 24 Z" fill="none" stroke="#111" stroke-width="2.2"/>
  <rect x="7" y="23" width="42" height="9" rx="2" fill="none" stroke="#111" stroke-width="2.2"/>
  <circle cx="16" cy="33" r="5" fill="white" stroke="#111" stroke-width="2.2"/>
  <circle cx="40" cy="33" r="5" fill="white" stroke="#111" stroke-width="2.2"/>
</g><text x="90" y="321" font-family="Arial,Helvetica,sans-serif" font-size="25">Tercera</text>

<g transform="translate(270,295) scale(0.9)">
  <path d="M4 24 L10 14 L20 10 L35 10 L43 15 L49 24 Z" fill="none" stroke="#111" stroke-width="2.2"/>
  <rect x="7" y="23" width="42" height="9" rx="2" fill="none" stroke="#111" stroke-width="2.2"/>
  <circle cx="16" cy="33" r="5" fill="white" stroke="#111" stroke-width="2.2"/>
  <circle cx="40" cy="33" r="5" fill="white" stroke="#111" stroke-width="2.2"/>
</g>
<g transform="translate(345,295) scale(0.9)">
  <path d="M4 24 L10 14 L20 10 L35 10 L43 15 L49 24 Z" fill="none" stroke="#111" stroke-width="2.2"/>
  <rect x="7" y="23" width="42" height="9" rx="2" fill="none" stroke="#111" stroke-width="2.2"/>
  <circle cx="16" cy="33" r="5" fill="white" stroke="#111" stroke-width="2.2"/>
  <circle cx="40" cy="33" r="5" fill="white" stroke="#111" stroke-width="2.2"/>
</g>
<g transform="translate(420,295) scale(0.9)">
  <path d="M4 24 L10 14 L20 10 L35 10 L43 15 L49 24 Z" fill="none" stroke="#111" stroke-width="2.2"/>
  <rect x="7" y="23" width="42" height="9" rx="2" fill="none" stroke="#111" stroke-width="2.2"/>
  <circle cx="16" cy="33" r="5" fill="white" stroke="#111" stroke-width="2.2"/>
  <circle cx="40" cy="33" r="5" fill="white" stroke="#111" stroke-width="2.2"/>
</g>
<g transform="translate(495,295) scale(0.9)">
  <path d="M4 24 L10 14 L20 10 L35 10 L43 15 L49 24 Z" fill="none" stroke="#111" stroke-width="2.2"/>
  <rect x="7" y="23" width="42" height="9" rx="2" fill="none" stroke="#111" stroke-width="2.2"/>
  <circle cx="16" cy="33" r="5" fill="white" stroke="#111" stroke-width="2.2"/>
  <circle cx="40" cy="33" r="5" fill="white" stroke="#111" stroke-width="2.2"/>
</g>
<defs><clipPath id="clip570_295"><rect x="570" y="295" width="23.400000000000002" height="36.0"/></clipPath></defs>
<g clip-path="url(#clip570_295)">
<g transform="translate(570,295) scale(0.9)">
  <path d="M4 24 L10 14 L20 10 L35 10 L43 15 L49 24 Z" fill="none" stroke="#111" stroke-width="2.2"/>
  <rect x="7" y="23" width="42" height="9" rx="2" fill="none" stroke="#111" stroke-width="2.2"/>
  <circle cx="16" cy="33" r="5" fill="white" stroke="#111" stroke-width="2.2"/>
  <circle cx="40" cy="33" r="5" fill="white" stroke="#111" stroke-width="2.2"/>
</g></g><text x="90" y="396" font-family="Arial,Helvetica,sans-serif" font-size="25">Cuarta</text>

<g transform="translate(270,370) scale(0.9)">
  <path d="M4 24 L10 14 L20 10 L35 10 L43 15 L49 24 Z" fill="none" stroke="#111" stroke-width="2.2"/>
  <rect x="7" y="23" width="42" height="9" rx="2" fill="none" stroke="#111" stroke-width="2.2"/>
  <circle cx="16" cy="33" r="5" fill="white" stroke="#111" stroke-width="2.2"/>
  <circle cx="40" cy="33" r="5" fill="white" stroke="#111" stroke-width="2.2"/>
</g>
<g transform="translate(345,370) scale(0.9)">
  <path d="M4 24 L10 14 L20 10 L35 10 L43 15 L49 24 Z" fill="none" stroke="#111" stroke-width="2.2"/>
  <rect x="7" y="23" width="42" height="9" rx="2" fill="none" stroke="#111" stroke-width="2.2"/>
  <circle cx="16" cy="33" r="5" fill="white" stroke="#111" stroke-width="2.2"/>
  <circle cx="40" cy="33" r="5" fill="white" stroke="#111" stroke-width="2.2"/>
</g>
<g transform="translate(420,370) scale(0.9)">
  <path d="M4 24 L10 14 L20 10 L35 10 L43 15 L49 24 Z" fill="none" stroke="#111" stroke-width="2.2"/>
  <rect x="7" y="23" width="42" height="9" rx="2" fill="none" stroke="#111" stroke-width="2.2"/>
  <circle cx="16" cy="33" r="5" fill="white" stroke="#111" stroke-width="2.2"/>
  <circle cx="40" cy="33" r="5" fill="white" stroke="#111" stroke-width="2.2"/>
</g>
<g transform="translate(495,370) scale(0.9)">
  <path d="M4 24 L10 14 L20 10 L35 10 L43 15 L49 24 Z" fill="none" stroke="#111" stroke-width="2.2"/>
  <rect x="7" y="23" width="42" height="9" rx="2" fill="none" stroke="#111" stroke-width="2.2"/>
  <circle cx="16" cy="33" r="5" fill="white" stroke="#111" stroke-width="2.2"/>
  <circle cx="40" cy="33" r="5" fill="white" stroke="#111" stroke-width="2.2"/>
</g>
<g transform="translate(570,370) scale(0.9)">
  <path d="M4 24 L10 14 L20 10 L35 10 L43 15 L49 24 Z" fill="none" stroke="#111" stroke-width="2.2"/>
  <rect x="7" y="23" width="42" height="9" rx="2" fill="none" stroke="#111" stroke-width="2.2"/>
  <circle cx="16" cy="33" r="5" fill="white" stroke="#111" stroke-width="2.2"/>
  <circle cx="40" cy="33" r="5" fill="white" stroke="#111" stroke-width="2.2"/>
</g>
<defs><clipPath id="clip645_370"><rect x="645" y="370" width="23.400000000000002" height="36.0"/></clipPath></defs>
<g clip-path="url(#clip645_370)">
<g transform="translate(645,370) scale(0.9)">
  <path d="M4 24 L10 14 L20 10 L35 10 L43 15 L49 24 Z" fill="none" stroke="#111" stroke-width="2.2"/>
  <rect x="7" y="23" width="42" height="9" rx="2" fill="none" stroke="#111" stroke-width="2.2"/>
  <circle cx="16" cy="33" r="5" fill="white" stroke="#111" stroke-width="2.2"/>
  <circle cx="40" cy="33" r="5" fill="white" stroke="#111" stroke-width="2.2"/>
</g></g><text x="90" y="471" font-family="Arial,Helvetica,sans-serif" font-size="25">Quinta</text>

<g transform="translate(270,445) scale(0.9)">
  <path d="M4 24 L10 14 L20 10 L35 10 L43 15 L49 24 Z" fill="none" stroke="#111" stroke-width="2.2"/>
  <rect x="7" y="23" width="42" height="9" rx="2" fill="none" stroke="#111" stroke-width="2.2"/>
  <circle cx="16" cy="33" r="5" fill="white" stroke="#111" stroke-width="2.2"/>
  <circle cx="40" cy="33" r="5" fill="white" stroke="#111" stroke-width="2.2"/>
</g>
<g transform="translate(345,445) scale(0.9)">
  <path d="M4 24 L10 14 L20 10 L35 10 L43 15 L49 24 Z" fill="none" stroke="#111" stroke-width="2.2"/>
  <rect x="7" y="23" width="42" height="9" rx="2" fill="none" stroke="#111" stroke-width="2.2"/>
  <circle cx="16" cy="33" r="5" fill="white" stroke="#111" stroke-width="2.2"/>
  <circle cx="40" cy="33" r="5" fill="white" stroke="#111" stroke-width="2.2"/>
</g>
<g transform="translate(420,445) scale(0.9)">
  <path d="M4 24 L10 14 L20 10 L35 10 L43 15 L49 24 Z" fill="none" stroke="#111" stroke-width="2.2"/>
  <rect x="7" y="23" width="42" height="9" rx="2" fill="none" stroke="#111" stroke-width="2.2"/>
  <circle cx="16" cy="33" r="5" fill="white" stroke="#111" stroke-width="2.2"/>
  <circle cx="40" cy="33" r="5" fill="white" stroke="#111" stroke-width="2.2"/>
</g>
<g transform="translate(495,445) scale(0.9)">
  <path d="M4 24 L10 14 L20 10 L35 10 L43 15 L49 24 Z" fill="none" stroke="#111" stroke-width="2.2"/>
  <rect x="7" y="23" width="42" height="9" rx="2" fill="none" stroke="#111" stroke-width="2.2"/>
  <circle cx="16" cy="33" r="5" fill="white" stroke="#111" stroke-width="2.2"/>
  <circle cx="40" cy="33" r="5" fill="white" stroke="#111" stroke-width="2.2"/>
</g>
<g transform="translate(570,445) scale(0.9)">
  <path d="M4 24 L10 14 L20 10 L35 10 L43 15 L49 24 Z" fill="none" stroke="#111" stroke-width="2.2"/>
  <rect x="7" y="23" width="42" height="9" rx="2" fill="none" stroke="#111" stroke-width="2.2"/>
  <circle cx="16" cy="33" r="5" fill="white" stroke="#111" stroke-width="2.2"/>
  <circle cx="40" cy="33" r="5" fill="white" stroke="#111" stroke-width="2.2"/>
</g>
<g transform="translate(645,445) scale(0.9)">
  <path d="M4 24 L10 14 L20 10 L35 10 L43 15 L49 24 Z" fill="none" stroke="#111" stroke-width="2.2"/>
  <rect x="7" y="23" width="42" height="9" rx="2" fill="none" stroke="#111" stroke-width="2.2"/>
  <circle cx="16" cy="33" r="5" fill="white" stroke="#111" stroke-width="2.2"/>
  <circle cx="40" cy="33" r="5" fill="white" stroke="#111" stroke-width="2.2"/>
</g>
<g transform="translate(720,445) scale(0.9)">
  <path d="M4 24 L10 14 L20 10 L35 10 L43 15 L49 24 Z" fill="none" stroke="#111" stroke-width="2.2"/>
  <rect x="7" y="23" width="42" height="9" rx="2" fill="none" stroke="#111" stroke-width="2.2"/>
  <circle cx="16" cy="33" r="5" fill="white" stroke="#111" stroke-width="2.2"/>
  <circle cx="40" cy="33" r="5" fill="white" stroke="#111" stroke-width="2.2"/>
</g>
<defs><clipPath id="clip795_445"><rect x="795" y="445" width="23.400000000000002" height="36.0"/></clipPath></defs>
<g clip-path="url(#clip795_445)">
<g transform="translate(795,445) scale(0.9)">
  <path d="M4 24 L10 14 L20 10 L35 10 L43 15 L49 24 Z" fill="none" stroke="#111" stroke-width="2.2"/>
  <rect x="7" y="23" width="42" height="9" rx="2" fill="none" stroke="#111" stroke-width="2.2"/>
  <circle cx="16" cy="33" r="5" fill="white" stroke="#111" stroke-width="2.2"/>
  <circle cx="40" cy="33" r="5" fill="white" stroke="#111" stroke-width="2.2"/>
</g></g>
<g transform="translate(430,525) scale(0.8)">
  <path d="M4 24 L10 14 L20 10 L35 10 L43 15 L49 24 Z" fill="none" stroke="#111" stroke-width="2.2"/>
  <rect x="7" y="23" width="42" height="9" rx="2" fill="none" stroke="#111" stroke-width="2.2"/>
  <circle cx="16" cy="33" r="5" fill="white" stroke="#111" stroke-width="2.2"/>
  <circle cx="40" cy="33" r="5" fill="white" stroke="#111" stroke-width="2.2"/>
</g><text x="520" y="555" font-family="Arial,Helvetica,sans-serif" font-size="24">Cada automóvil representa 20 carros</text></svg>