<svg xmlns="http://www.w3.org/2000/svg" width="1100" height="420" viewBox="0 0 1100 420" role="img" aria-labelledby="title desc">
<title id="title">Recta numérica con P, Q, R y S</title>
<desc id="desc">Recta numérica con marcas espaciadas en sextos; se muestran -1/6, 0 y los puntos P, Q, R y S.</desc>
<rect width="100%" height="100%" fill="white"/>
<defs>
  <marker id="arr" markerWidth="10" markerHeight="10" refX="5" refY="5" orient="auto-start-reverse">
    <path d="M0,0 L10,5 L0,10 z" fill="#111"/>
  </marker>
</defs>
<line x1="110" y1="185" x2="990" y2="185" stroke="#111" stroke-width="4" marker-start="url(#arr)" marker-end="url(#arr)"/>
<circle cx="160" cy="185" r="8" fill="#111" stroke="#111" stroke-width="3"/>
<circle cx="208" cy="185" r="8" fill="white" stroke="#111" stroke-width="3"/>
<circle cx="256" cy="185" r="8" fill="white" stroke="#111" stroke-width="3"/>
<circle cx="304" cy="185" r="8" fill="white" stroke="#111" stroke-width="3"/>
<circle cx="352" cy="185" r="8" fill="white" stroke="#111" stroke-width="3"/>
<circle cx="400" cy="185" r="8" fill="#111" stroke="#111" stroke-width="3"/>
<circle cx="448" cy="185" r="8" fill="white" stroke="#111" stroke-width="3"/>
<circle cx="496" cy="185" r="8" fill="#111" stroke="#111" stroke-width="3"/>
<circle cx="544" cy="185" r="8" fill="white" stroke="#111" stroke-width="3"/>
<circle cx="592" cy="185" r="8" fill="white" stroke="#111" stroke-width="3"/>
<circle cx="640" cy="185" r="8" fill="#111" stroke="#111" stroke-width="3"/>
<circle cx="688" cy="185" r="8" fill="white" stroke="#111" stroke-width="3"/>
<circle cx="736" cy="185" r="8" fill="white" stroke="#111" stroke-width="3"/>
<circle cx="784" cy="185" r="8" fill="white" stroke="#111" stroke-width="3"/>
<circle cx="832" cy="185" r="8" fill="white" stroke="#111" stroke-width="3"/>
<circle cx="880" cy="185" r="8" fill="white" stroke="#111" stroke-width="3"/>
<circle cx="928" cy="185" r="8" fill="white" stroke="#111" stroke-width="3"/>
<circle cx="976" cy="185" r="8" fill="#111" stroke="#111" stroke-width="3"/>
<text x="160" y="245" text-anchor="middle" font-family="Arial,Helvetica,sans-serif" font-size="28">−</text>
<text x="167" y="225" text-anchor="middle" font-family="Arial,Helvetica,sans-serif" font-size="24">1</text>
<line x1="158" y1="233" x2="176" y2="233" stroke="#111" stroke-width="2"/>
<text x="167" y="262" text-anchor="middle" font-family="Arial,Helvetica,sans-serif" font-size="24">6</text>
<text x="208" y="240" text-anchor="middle" font-family="Arial,Helvetica,sans-serif" font-size="34" font-style="italic">0</text>
<text x="400" y="240" text-anchor="middle" font-family="Arial,Helvetica,sans-serif" font-size="34" font-style="italic">P</text>
<text x="496" y="240" text-anchor="middle" font-family="Arial,Helvetica,sans-serif" font-size="34" font-style="italic">Q</text>
<text x="640" y="240" text-anchor="middle" font-family="Arial,Helvetica,sans-serif" font-size="34" font-style="italic">R</text>
<text x="976" y="240" text-anchor="middle" font-family="Arial,Helvetica,sans-serif" font-size="34" font-style="italic">S</text>
</svg>